<?xml version="1.0" encoding="UTF-8" standalone="no"?>
<!-- Created with Inkscape (http://www.inkscape.org/) -->

<svg
   xmlns:dc="http://purl.org/dc/elements/1.1/"
   xmlns:cc="http://creativecommons.org/ns#"
   xmlns:rdf="http://www.w3.org/1999/02/22-rdf-syntax-ns#"
   xmlns:svg="http://www.w3.org/2000/svg"
   xmlns="http://www.w3.org/2000/svg"
   xmlns:sodipodi="http://sodipodi.sourceforge.net/DTD/sodipodi-0.dtd"
   xmlns:inkscape="http://www.inkscape.org/namespaces/inkscape"
   width="100"
   height="100"
   viewBox="0 0 100 100"
   id="svg2"
   version="1.1"
   inkscape:version="0.91 r13725"
   sodipodi:docname="DbAdd.svg">
  <defs
     id="defs4" />
  <sodipodi:namedview
     id="base"
     pagecolor="#143232"
     bordercolor="#666666"
     borderopacity="1.0"
     inkscape:pageopacity="0"
     inkscape:pageshadow="2"
     inkscape:zoom="2.8"
     inkscape:cx="74.972367"
     inkscape:cy="49.512312"
     inkscape:document-units="px"
     inkscape:current-layer="layer1"
     showgrid="false"
     units="px"
     inkscape:window-width="1366"
     inkscape:window-height="715"
     inkscape:window-x="-8"
     inkscape:window-y="-8"
     inkscape:window-maximized="1" />
  <metadata
     id="metadata7">
    <rdf:RDF>
      <cc:Work
         rdf:about="">
        <dc:format>image/svg+xml</dc:format>
        <dc:type
           rdf:resource="http://purl.org/dc/dcmitype/StillImage" />
        <dc:title></dc:title>
      </cc:Work>
    </rdf:RDF>
  </metadata>
  <g
     inkscape:label="Layer 1"
     inkscape:groupmode="layer"
     id="layer1"
     transform="translate(0,-952.36216)">
    <g
       id="g3847"
       transform="matrix(0.10102041,0,0,0.10102041,-0.5102041,951.85195)"
       style="fill:#ffffff">
      <g
         id="g3849"
         style="fill:#ffffff">
        <g
           id="g3851"
           style="fill:#ffffff">
          <path
             id="path3853"
             d="m 420.5,565.3 c 53.7,0 104.9,-4.7 151.9,-13.1 l 0,-55.8 c 0,-39.6 20.4,-74.5 51.2,-94.9 -59.9,15.2 -129.1,24 -203,24 C 193.8,425.6 10,343.8 10,242.8 c 0,42.1 0,70.3 0,139.7 0,101 183.8,182.8 410.5,182.8 z"
             inkscape:connector-curvature="0"
             style="fill:#ffffff" />
          <ellipse
             id="ellipse3855"
             ry="182.7"
             rx="410.5"
             cy="192.7"
             cx="420.5"
             style="fill:#ffffff" />
          <path
             id="path3857"
             d="m 831,242.8 c 0,56.2 -57,106.4 -146.6,139.9 0.6,0 1.1,-0.2 1.8,-0.2 l 75.9,0 c 24.5,0 47.2,8 65.8,21.3 1.8,-7 3,-14.1 3,-21.3 0.1,-37 0.1,-75.7 0.1,-139.7 z"
             inkscape:connector-curvature="0"
             style="fill:#ffffff" />
          <path
             id="path3859"
             d="m 382.6,754.2 0,-68 c 0,-27.1 9.9,-51.6 25.7,-71.2 C 187.2,612.2 10,531.8 10,432.7 c 0,42.1 0,70.3 0,139.7 0,95.2 163.6,173.3 372.6,181.8 z"
             inkscape:connector-curvature="0"
             style="fill:#ffffff" />
          <path
             id="path3861"
             d="m 572.4,876.1 -75.9,0 C 448.7,876.1 407.8,846.4 391,804.5 178,797.8 10,719 10,622.5 c 0,42.1 0,70.3 0,139.7 0,101 183.8,182.7 410.5,182.7 53.7,0 104.9,-4.7 151.9,-13.1 l 0,-55.7 0,0 z"
             inkscape:connector-curvature="0"
             style="fill:#ffffff" />
        </g>
        <path
           id="path3863"
           d="m 952,648.3 -151.8,0 0,-151.8 c 0,-20.9 -17,-38 -38,-38 l -75.9,0 c -20.9,0 -38,17 -38,38 l 0,151.9 -151.8,0 c -20.9,0 -38,17 -38,38 l 0,75.9 c 0,20.9 17,38 38,38 l 151.9,0 0,151.7 c 0,20.9 17,38 38,38 l 75.9,0 c 20.9,0 38,-17 38,-38 l 0,-151.8 151.7,0 c 20.9,0 38,-17 38,-38 l 0,-75.9 c 0,-20.9 -17,-38 -38,-38 z"
           inkscape:connector-curvature="0"
           style="fill:#ffffff" />
      </g>
      <g
         id="g3865"
         style="fill:#ffffff" />
      <g
         id="g3867"
         style="fill:#ffffff" />
      <g
         id="g3869"
         style="fill:#ffffff" />
      <g
         id="g3871"
         style="fill:#ffffff" />
      <g
         id="g3873"
         style="fill:#ffffff" />
      <g
         id="g3875"
         style="fill:#ffffff" />
      <g
         id="g3877"
         style="fill:#ffffff" />
      <g
         id="g3879"
         style="fill:#ffffff" />
      <g
         id="g3881"
         style="fill:#ffffff" />
      <g
         id="g3883"
         style="fill:#ffffff" />
      <g
         id="g3885"
         style="fill:#ffffff" />
      <g
         id="g3887"
         style="fill:#ffffff" />
      <g
         id="g3889"
         style="fill:#ffffff" />
      <g
         id="g3891"
         style="fill:#ffffff" />
      <g
         id="g3893"
         style="fill:#ffffff" />
    </g>
  </g>
</svg>
