<?xml version="1.0" encoding="UTF-8" standalone="no"?>
<!-- Created with Inkscape (http://www.inkscape.org/) -->

<svg
   xmlns:dc="http://purl.org/dc/elements/1.1/"
   xmlns:cc="http://creativecommons.org/ns#"
   xmlns:rdf="http://www.w3.org/1999/02/22-rdf-syntax-ns#"
   xmlns:svg="http://www.w3.org/2000/svg"
   xmlns="http://www.w3.org/2000/svg"
   xmlns:sodipodi="http://sodipodi.sourceforge.net/DTD/sodipodi-0.dtd"
   xmlns:inkscape="http://www.inkscape.org/namespaces/inkscape"
   width="100"
   height="100"
   viewBox="0 0 100 100"
   id="svg2"
   version="1.1"
   inkscape:version="0.91 r13725"
   sodipodi:docname="DbRestore.svg"
   inkscape:export-filename="C:\Users\ahmed\Downloads\Home.png"
   inkscape:export-xdpi="90"
   inkscape:export-ydpi="90">
  <defs
     id="defs4">
    <linearGradient
       id="linearGradient-1"
       y2="157.95518"
       x2="92.696571"
       y1="17.661398"
       x1="92.696587"
       gradientTransform="scale(0.97317604,1.0275633)"
       gradientUnits="userSpaceOnUse">
      <stop
         id="stop4015"
         offset="0%"
         stop-color="#97D9F6" />
      <stop
         id="stop4017"
         offset="92.024499%"
         stop-color="#0F80CC" />
      <stop
         id="stop4019"
         offset="100%"
         stop-color="#0F80CC" />
    </linearGradient>
  </defs>
  <sodipodi:namedview
     id="base"
     pagecolor="#141e1e"
     bordercolor="#666666"
     borderopacity="1.0"
     inkscape:pageopacity="0"
     inkscape:pageshadow="2"
     inkscape:zoom="2.8"
     inkscape:cx="62.130634"
     inkscape:cy="55.339643"
     inkscape:document-units="px"
     inkscape:current-layer="layer1"
     showgrid="false"
     inkscape:window-width="1366"
     inkscape:window-height="715"
     inkscape:window-x="-8"
     inkscape:window-y="-8"
     inkscape:window-maximized="1"
     units="px" />
  <metadata
     id="metadata7">
    <rdf:RDF>
      <cc:Work
         rdf:about="">
        <dc:format>image/svg+xml</dc:format>
        <dc:type
           rdf:resource="http://purl.org/dc/dcmitype/StillImage" />
        <dc:title></dc:title>
      </cc:Work>
    </rdf:RDF>
  </metadata>
  <g
     inkscape:label="Layer 1"
     inkscape:groupmode="layer"
     id="layer1"
     transform="translate(0,-952.36216)">
    <g
       id="g4698"
       transform="matrix(0.1100844,0,0,0.10102076,-5.0427495,951.85168)"
       style="fill:#ffffff">
      <g
         id="g4700"
         transform="matrix(0.1,0,0,-0.1,0,512)"
         style="fill:#ffffff">
        <path
           id="path4702"
           d="M 4142.8,5010 C 2817.3,4941 1740.8,4663.3 1080,4222.8 702.7,3973.8 520.7,3705.6 520.7,3403 c 0,-386.9 321.8,-737.5 950.1,-1034.4 1635.8,-771.9 4631.6,-766.2 6252.1,11.5 515.2,249 793,501.9 900.3,819.8 49.8,145.6 49.8,254.8 5.7,402.2 -201.1,641.7 -1338.9,1172.3 -2905.7,1352.3 -488.6,57.6 -1136,80.5 -1580.4,55.6 z"
           inkscape:connector-curvature="0"
           style="fill:#ffffff" />
        <path
           id="path4704"
           d="m 503.5,1334.3 c 0,-722.1 7.7,-1233.6 19.2,-1308.3 30.6,-182 116.8,-333.3 285.4,-499.9 478.9,-475 1404,-808.3 2674,-959.6 421.4,-51.7 1321.7,-70.9 1781.4,-38.3 1685.5,118.7 2991.8,622.4 3317.5,1279.5 l 72.8,147.5 5.7,1283.3 c 3.8,1178 1.9,1279.5 -24.9,1227.8 C 8441.2,2098.5 7477.7,1681 6339.9,1470.3 4987.6,1221.3 3512.7,1269.2 2237,1604.4 1390.4,1826.6 741,2148.4 557.1,2435.7 l -53.6,86.2 0,-1187.6 z"
           inkscape:connector-curvature="0"
           style="fill:#ffffff" />
        <path
           id="path4706"
           d="m 505.4,-1948.8 c 0,-647.4 7.7,-1233.6 17.2,-1302.5 103.4,-718.3 1356.1,-1314 3124.1,-1482.6 1243.1,-120.7 2499.7,-1.9 3518.7,327.6 l 272,88.1 0,159 0,160.9 -691.5,3.8 -689.6,5.7 978.8,1015.2 c 540.2,559.3 1040.1,1076.5 1112.9,1149.3 l 134.1,134.1 78.5,-86.2 c 44.1,-47.9 130.3,-139.8 191.6,-206.9 l 111.1,-120.7 0,664.7 0,662.7 -61.3,-91.9 c -34.5,-51.7 -122.6,-139.8 -197.3,-195.4 -517.2,-388.8 -1570.7,-712.6 -2800.4,-860 -404.2,-47.9 -1610.9,-47.9 -2032.3,0 -1091.8,124.5 -2103.2,415.7 -2658.7,764.3 -147.5,91.9 -325.6,254.7 -385,350.5 -17.2,30.6 -22.9,-220.3 -22.9,-1139.7 z"
           inkscape:connector-curvature="0"
           style="fill:#ffffff" />
        <path
           id="path4708"
           d="m 7667.3,-2954.4 -603.4,-603.4 408,0 406.1,0 0,-603.4 0,-603.4 392.7,0 392.7,0 0,603.4 0,603.4 415.6,0 417.6,0 -603.4,603.4 c -331.4,331.4 -607.2,603.4 -612.9,603.4 -5.7,0 -281.7,-272.1 -613,-603.4 z"
           inkscape:connector-curvature="0"
           style="fill:#ffffff" />
      </g>
    </g>
  </g>
</svg>
