<?xml version="1.0" encoding="UTF-8" standalone="no"?>
<!-- Created with Inkscape (http://www.inkscape.org/) -->

<svg
   xmlns:dc="http://purl.org/dc/elements/1.1/"
   xmlns:cc="http://creativecommons.org/ns#"
   xmlns:rdf="http://www.w3.org/1999/02/22-rdf-syntax-ns#"
   xmlns:svg="http://www.w3.org/2000/svg"
   xmlns="http://www.w3.org/2000/svg"
   xmlns:sodipodi="http://sodipodi.sourceforge.net/DTD/sodipodi-0.dtd"
   xmlns:inkscape="http://www.inkscape.org/namespaces/inkscape"
   width="100"
   height="100"
   viewBox="0 0 100 100"
   id="svg2"
   version="1.1"
   inkscape:version="0.91 r13725"
   sodipodi:docname="UpdateDb.svg">
  <defs
     id="defs4" />
  <sodipodi:namedview
     id="base"
     pagecolor="#323232"
     bordercolor="#666666"
     borderopacity="1.0"
     inkscape:pageopacity="0"
     inkscape:pageshadow="2"
     inkscape:zoom="2.8"
     inkscape:cx="73.721815"
     inkscape:cy="81.795343"
     inkscape:document-units="px"
     inkscape:current-layer="layer1"
     showgrid="false"
     units="px"
     inkscape:window-width="1366"
     inkscape:window-height="715"
     inkscape:window-x="-8"
     inkscape:window-y="-8"
     inkscape:window-maximized="1" />
  <metadata
     id="metadata7">
    <rdf:RDF>
      <cc:Work
         rdf:about="">
        <dc:format>image/svg+xml</dc:format>
        <dc:type
           rdf:resource="http://purl.org/dc/dcmitype/StillImage" />
        <dc:title></dc:title>
      </cc:Work>
    </rdf:RDF>
  </metadata>
  <g
     inkscape:label="Layer 1"
     inkscape:groupmode="layer"
     id="layer1"
     transform="translate(0,-952.36214)">
    <g
       id="g3847"
       transform="matrix(0.10102041,0,0,0.10102041,-0.5102041,951.85193)"
       style="fill:#ffffff">
      <path
         id="path3849"
         d="m 438.7,408.1 c 270.6,0 459.4,-68.6 459.4,-153.1 l 0,-91.9 C 898.1,78.6 709.4,10 438.7,10 168.1,10 10,78.6 10,163.1 l 0,91.9 c 0,84.6 158.1,153.1 428.7,153.1 z"
         inkscape:connector-curvature="0"
         style="fill:#ffffff" />
      <path
         id="path3851"
         d="M 383.2,774.5 C 197.3,767.6 88.8,725.2 31.7,668.4 17.1,683 10,698.4 10,714.4 l 0,122.5 c 0,84.6 158.1,153.1 428.7,153.1 27.1,0 53.5,-0.8 79.4,-2.2 C 448.6,937.8 399,862.2 383.2,774.5 Z"
         inkscape:connector-curvature="0"
         style="fill:#ffffff" />
      <path
         id="path3853"
         d="m 377.6,713 c 0.3,-81 29.1,-155.2 77,-213.1 -5.8,0 -11.4,0.1 -17.4,0.1 C 217.8,500 94.1,454.9 31.7,392.8 17.1,407.3 10,422.7 10,438.8 l 0,122.5 c 0,77.9 134.6,142.1 367.6,151.7 z"
         inkscape:connector-curvature="0"
         style="fill:#ffffff" />
      <path
         id="path3855"
         d="M 714.4,438.8 C 562.2,438.8 438.8,562.2 438.8,714.4 438.8,866.6 562.2,990 714.4,990 866.6,990 990,866.6 990,714.4 990,562.2 866.6,438.8 714.4,438.8 Z m 11.6,467.4 0,-61.7 c 0,0 -175.7,-13.5 -175.7,-143.4 0,0 22.2,53.3 107.2,63.4 13.9,1.6 35,3.3 68.5,3.3 L 726,701.1 878.3,803.6 726,906.2 Z m 45.2,-241.9 c -13.9,-1.7 -35,-3.3 -68.5,-3.3 l 0,66.7 -152.4,-102.5 152.4,-102.5 0,61.7 c 0,0 175.7,13.5 175.7,143.4 0,0 -22.2,-53.4 -107.2,-63.5 z"
         inkscape:connector-curvature="0"
         style="fill:#ffffff" />
    </g>
  </g>
</svg>
