<?xml version="1.0" encoding="UTF-8" standalone="no"?>
<!-- Created with Inkscape (http://www.inkscape.org/) -->

<svg
   xmlns:dc="http://purl.org/dc/elements/1.1/"
   xmlns:cc="http://creativecommons.org/ns#"
   xmlns:rdf="http://www.w3.org/1999/02/22-rdf-syntax-ns#"
   xmlns:svg="http://www.w3.org/2000/svg"
   xmlns="http://www.w3.org/2000/svg"
   xmlns:sodipodi="http://sodipodi.sourceforge.net/DTD/sodipodi-0.dtd"
   xmlns:inkscape="http://www.inkscape.org/namespaces/inkscape"
   width="100"
   height="100"
   viewBox="0 0 100 100"
   id="svg2"
   version="1.1"
   inkscape:version="0.91 r13725"
   sodipodi:docname="DbUpgrade.svg"
   inkscape:export-filename="C:\Users\ahmed\Downloads\DbBackup.png"
   inkscape:export-xdpi="90"
   inkscape:export-ydpi="90">
  <defs
     id="defs4" />
  <sodipodi:namedview
     id="base"
     pagecolor="#323232"
     bordercolor="#666666"
     borderopacity="1.0"
     inkscape:pageopacity="0"
     inkscape:pageshadow="2"
     inkscape:zoom="2.8"
     inkscape:cx="59.808631"
     inkscape:cy="83.584171"
     inkscape:document-units="px"
     inkscape:current-layer="g4104"
     showgrid="false"
     units="px"
     inkscape:window-width="1366"
     inkscape:window-height="715"
     inkscape:window-x="-8"
     inkscape:window-y="-8"
     inkscape:window-maximized="1" />
  <metadata
     id="metadata7">
    <rdf:RDF>
      <cc:Work
         rdf:about="">
        <dc:format>image/svg+xml</dc:format>
        <dc:type
           rdf:resource="http://purl.org/dc/dcmitype/StillImage" />
        <dc:title></dc:title>
      </cc:Work>
    </rdf:RDF>
  </metadata>
  <g
     inkscape:label="Layer 1"
     inkscape:groupmode="layer"
     id="layer1"
     transform="translate(0,-952.36214)">
    <g
       id="g4104"
       transform="matrix(0.10995233,0,0,0.10101967,-4.9756083,951.85207)"
       style="fill:#ffffff">
      <g
         id="g4130"
         transform="matrix(0.91867176,0,0,1.1148044,40.704988,-57.464307)">
        <path
           id="path4132"
           d="m 500,332.9 0,-221.6 C 448.1,104.8 386.8,99.6 325,99.6 c -155.8,0 -315,35 -315,35 l 0,175 c 0,0 160.9,35 315,35 62.2,0 123.3,-5.3 175,-11.7 z"
           inkscape:connector-curvature="0" />
        <path
           id="path4134"
           d="M 644.5,180.7 C 782.2,65.8 818.1,273 792.8,336.6 c 76.8,-83.7 56.8,-421 -197.4,-205 l -60.4,-67 0,175 175,0 -65.5,-58.9 z"
           inkscape:connector-curvature="0" />
        <path
           id="path4136"
           d="m 325,659.6 c -159.4,0 -315,-35 -315,-35 l 0,175 c 0,0 155.6,35 315,35 31.5,0 63.3,-1.4 93.8,-3.7 -34.1,-49.3 -55.2,-108.2 -58.4,-171.8 -11.8,0.3 -23.6,0.5 -35.4,0.5 z"
           inkscape:connector-curvature="0" />
        <path
           id="path4138"
           d="m 364.2,588.9 c 11.3,-70.2 44.6,-133.1 92.6,-181.4 -41.7,4.2 -86.9,7.1 -131.9,7.1 -159.4,0 -315,-35 -315,-35 l 0,175 c 0,0 155.6,35 315,35 13.2,0 26.3,-0.3 39.3,-0.7 z"
           inkscape:connector-curvature="0" />
        <path
           id="path4140"
           d="m 710,379.6 c -154.6,0 -280,125.3 -280,280 0,154.6 125.4,280 280,280 154.6,0 280,-125.4 280,-280 0,-154.7 -125.4,-280 -280,-280 z m 49.5,280 -1.8,148.6 -95.6,0 -1.7,-148.6 -74.3,0 L 710,511 l 123.8,148.6 -74.3,0 0,0 z"
           inkscape:connector-curvature="0" />
      </g>
    </g>
  </g>
</svg>
