<?xml version="1.0" encoding="UTF-8" standalone="no"?>
<!-- Created with Inkscape (http://www.inkscape.org/) -->

<svg
   xmlns:dc="http://purl.org/dc/elements/1.1/"
   xmlns:cc="http://creativecommons.org/ns#"
   xmlns:rdf="http://www.w3.org/1999/02/22-rdf-syntax-ns#"
   xmlns:svg="http://www.w3.org/2000/svg"
   xmlns="http://www.w3.org/2000/svg"
   xmlns:sodipodi="http://sodipodi.sourceforge.net/DTD/sodipodi-0.dtd"
   xmlns:inkscape="http://www.inkscape.org/namespaces/inkscape"
   width="100"
   height="100"
   viewBox="0 0 100 100"
   id="svg2"
   version="1.1"
   inkscape:version="0.91 r13725"
   sodipodi:docname="Exit.svg"
   inkscape:export-filename="C:\Users\ahmed\Downloads\Login.png"
   inkscape:export-xdpi="90"
   inkscape:export-ydpi="90">
  <defs
     id="defs4" />
  <sodipodi:namedview
     id="base"
     pagecolor="#323232"
     bordercolor="#666666"
     borderopacity="1.0"
     inkscape:pageopacity="0"
     inkscape:pageshadow="2"
     inkscape:zoom="2.8"
     inkscape:cx="88.571915"
     inkscape:cy="49.905454"
     inkscape:document-units="px"
     inkscape:current-layer="g4130"
     showgrid="false"
     units="px"
     inkscape:window-width="1366"
     inkscape:window-height="715"
     inkscape:window-x="-8"
     inkscape:window-y="-8"
     inkscape:window-maximized="1" />
  <metadata
     id="metadata7">
    <rdf:RDF>
      <cc:Work
         rdf:about="">
        <dc:format>image/svg+xml</dc:format>
        <dc:type
           rdf:resource="http://purl.org/dc/dcmitype/StillImage" />
        <dc:title></dc:title>
      </cc:Work>
    </rdf:RDF>
  </metadata>
  <g
     inkscape:label="Layer 1"
     inkscape:groupmode="layer"
     id="layer1"
     transform="translate(0,-952.36214)">
    <g
       id="g4104"
       transform="matrix(0.10995233,0,0,0.10101967,-4.9756083,951.85207)"
       style="fill:#ffffff">
      <g
         id="g4130"
         transform="matrix(0.91867176,0,0,1.1148044,40.704988,-57.464307)">
        <g
           id="g4311"
           transform="matrix(1.0495216,0,0,0.89702887,-24.812986,51.536111)">
          <g
             id="g4313"
             transform="matrix(0.1,0,0,-0.1,0,511)">
            <path
               id="path4315"
               d="m 4773.4,4984.6 c -233.6,-77.1 -394.7,-214.9 -516.2,-441.5 l -63.1,-121.5 -7,-2415.2 c -7,-2672.1 -11.7,-2546 142.5,-2772.5 168.2,-247.6 509.2,-392.4 791.8,-341 284.9,53.7 504.5,217.2 621.3,467.1 l 63.1,133.1 0,2452.5 0,2452.5 -60.7,130.8 c -135.5,289.6 -394.7,464.8 -705.4,478.8 -100.4,7.3 -207.9,-4.4 -266.3,-23.1 z"
               inkscape:connector-curvature="0" />
            <path
               id="path4317"
               d="M 2057,3393.9 C 1888.8,3347.2 1790.7,3279.5 1606.2,3085.6 910.1,2359.2 457,1368.8 354.2,348.1 228.1,-875.8 615.8,-2153.5 1391.3,-3087.8 c 177.5,-212.5 555.9,-581.6 747.4,-726.4 875.9,-670.4 1971.4,-1018.4 3048.2,-971.7 1228.6,56.1 2317.1,544.2 3164.9,1420.1 378.4,392.4 621.3,738.1 852.6,1216.9 628.3,1298.7 619,2807.5 -23.4,4101.6 -233.6,469.5 -464.8,796.5 -810.5,1156.2 -186.9,191.5 -259.3,238.3 -450.8,287.3 -390.1,100.4 -817.5,-123.8 -957.7,-499.9 -39.7,-107.4 -49,-172.9 -42,-331.7 9.3,-252.2 58.4,-357.4 280.3,-600.3 406.4,-448.5 647,-913.3 768.4,-1485.5 72.4,-336.4 72.4,-864.2 0,-1200.6 -128.5,-607.3 -397.1,-1102.5 -831.5,-1536.9 -434.4,-436.8 -932,-705.4 -1536.9,-831.5 -338.7,-72.4 -866.6,-72.4 -1200.6,0 -1209.9,257 -2113.8,1158.6 -2368.4,2368.6 -72.4,336.3 -72.4,864.2 0,1200.6 119.1,567.6 366.7,1046.4 756.8,1473.8 217.2,235.9 280.3,364.4 292,612 7,163.5 0,221.9 -42,331.7 -142.6,383 -586.4,607.2 -981.1,497.4 z"
               inkscape:connector-curvature="0" />
          </g>
        </g>
      </g>
    </g>
  </g>
</svg>
