<?xml version="1.0" encoding="UTF-8" standalone="no"?>
<!-- Created with Inkscape (http://www.inkscape.org/) -->

<svg
   xmlns:dc="http://purl.org/dc/elements/1.1/"
   xmlns:cc="http://creativecommons.org/ns#"
   xmlns:rdf="http://www.w3.org/1999/02/22-rdf-syntax-ns#"
   xmlns:svg="http://www.w3.org/2000/svg"
   xmlns="http://www.w3.org/2000/svg"
   xmlns:sodipodi="http://sodipodi.sourceforge.net/DTD/sodipodi-0.dtd"
   xmlns:inkscape="http://www.inkscape.org/namespaces/inkscape"
   width="100"
   height="100"
   viewBox="0 0 100 100"
   id="svg2"
   version="1.1"
   inkscape:version="0.91 r13725"
   sodipodi:docname="FileDelete.svg"
   inkscape:export-filename="C:\Users\ahmed\Downloads\DbRestore.png"
   inkscape:export-xdpi="90"
   inkscape:export-ydpi="90">
  <defs
     id="defs4">
    <linearGradient
       id="linearGradient-1"
       y2="157.95518"
       x2="92.696571"
       y1="17.661398"
       x1="92.696587"
       gradientTransform="scale(0.97317604,1.0275633)"
       gradientUnits="userSpaceOnUse">
      <stop
         id="stop4015"
         offset="0%"
         stop-color="#97D9F6" />
      <stop
         id="stop4017"
         offset="92.024499%"
         stop-color="#0F80CC" />
      <stop
         id="stop4019"
         offset="100%"
         stop-color="#0F80CC" />
    </linearGradient>
  </defs>
  <sodipodi:namedview
     id="base"
     pagecolor="#141e1e"
     bordercolor="#666666"
     borderopacity="1.0"
     inkscape:pageopacity="0"
     inkscape:pageshadow="2"
     inkscape:zoom="2.8"
     inkscape:cx="62.130634"
     inkscape:cy="55.339643"
     inkscape:document-units="px"
     inkscape:current-layer="layer1"
     showgrid="false"
     inkscape:window-width="1366"
     inkscape:window-height="715"
     inkscape:window-x="-8"
     inkscape:window-y="-8"
     inkscape:window-maximized="1"
     units="px" />
  <metadata
     id="metadata7">
    <rdf:RDF>
      <cc:Work
         rdf:about="">
        <dc:format>image/svg+xml</dc:format>
        <dc:type
           rdf:resource="http://purl.org/dc/dcmitype/StillImage" />
        <dc:title></dc:title>
      </cc:Work>
    </rdf:RDF>
  </metadata>
  <g
     inkscape:label="Layer 1"
     inkscape:groupmode="layer"
     id="layer1"
     transform="translate(0,-952.36216)">
    <g
       id="g4724"
       transform="matrix(0.11541152,0,0,0.10102041,-7.7057591,951.85195)"
       style="fill:#ffffff">
      <path
         id="path4726"
         d="m 188.1,869.7 c 0,65 52.4,120.3 117,120.3 l 389.9,0 c 64.6,0 117,-55.4 117,-120.3 l 78,-630.1 -779.9,0 78,630.1 z m 434.7,-507.9 76.5,0 0,506 -76.5,0 0,-506 z m -169.1,0 92.5,0 0,506 -92.5,0 0,-506 z m -153,0 76.5,0 0,506 -76.5,0 0,-506 z"
         inkscape:connector-curvature="0"
         style="fill:#ffffff" />
      <path
         id="path4728"
         d="m 870.4,86.5 -253.5,0 c 0,0 -17.5,-76.5 -39,-76.5 L 422,10 c -21.5,0 -39,76.5 -39,76.5 l -253.4,0 c -32.3,0 -58.5,28.2 -58.5,60.7 0,32.5 0,61.5 0,61.5 l 857.8,0 c 0,0 0,-29 0,-61.5 0,-32.4 -26.2,-60.7 -58.5,-60.7 z"
         inkscape:connector-curvature="0"
         style="fill:#ffffff" />
    </g>
  </g>
</svg>
