<?xml version="1.0" encoding="UTF-8" standalone="no"?>
<!-- Created with Inkscape (http://www.inkscape.org/) -->

<svg
   xmlns:dc="http://purl.org/dc/elements/1.1/"
   xmlns:cc="http://creativecommons.org/ns#"
   xmlns:rdf="http://www.w3.org/1999/02/22-rdf-syntax-ns#"
   xmlns:svg="http://www.w3.org/2000/svg"
   xmlns="http://www.w3.org/2000/svg"
   xmlns:sodipodi="http://sodipodi.sourceforge.net/DTD/sodipodi-0.dtd"
   xmlns:inkscape="http://www.inkscape.org/namespaces/inkscape"
   width="100"
   height="100"
   viewBox="0 0 100 100"
   id="svg2"
   version="1.1"
   inkscape:version="0.91 r13725"
   sodipodi:docname="Home.svg"
   inkscape:export-filename="C:\Users\ahmed\Downloads\Write.png"
   inkscape:export-xdpi="90"
   inkscape:export-ydpi="90">
  <defs
     id="defs4">
    <linearGradient
       id="linearGradient-1"
       y2="157.95518"
       x2="92.696571"
       y1="17.661398"
       x1="92.696587"
       gradientTransform="scale(0.97317604,1.0275633)"
       gradientUnits="userSpaceOnUse">
      <stop
         id="stop4015"
         offset="0%"
         stop-color="#97D9F6" />
      <stop
         id="stop4017"
         offset="92.024499%"
         stop-color="#0F80CC" />
      <stop
         id="stop4019"
         offset="100%"
         stop-color="#0F80CC" />
    </linearGradient>
  </defs>
  <sodipodi:namedview
     id="base"
     pagecolor="#141e1e"
     bordercolor="#666666"
     borderopacity="1.0"
     inkscape:pageopacity="0"
     inkscape:pageshadow="2"
     inkscape:zoom="2.8"
     inkscape:cx="90.804932"
     inkscape:cy="65.88549"
     inkscape:document-units="px"
     inkscape:current-layer="layer1"
     showgrid="false"
     inkscape:window-width="1366"
     inkscape:window-height="715"
     inkscape:window-x="-8"
     inkscape:window-y="-8"
     inkscape:window-maximized="1"
     units="px" />
  <metadata
     id="metadata7">
    <rdf:RDF>
      <cc:Work
         rdf:about="">
        <dc:format>image/svg+xml</dc:format>
        <dc:type
           rdf:resource="http://purl.org/dc/dcmitype/StillImage" />
        <dc:title></dc:title>
      </cc:Work>
    </rdf:RDF>
  </metadata>
  <g
     inkscape:label="Layer 1"
     inkscape:groupmode="layer"
     id="layer1"
     transform="translate(0,-952.36216)">
    <g
       id="g4661"
       transform="matrix(0.10101557,0,0,0.11400276,-0.50400044,945.36078)"
       style="fill:#ffffff">
      <g
         id="g4663"
         style="fill:#ffffff">
        <path
           id="path4665"
           d="m 968,556.4 -90.2,0 0,323.8 c 0,24 -10.5,54 -54,54 l -215.9,0 0,-323.8 -215.8,0 0,323.8 -215.9,0 c -43.5,0 -54,-29.9 -54,-54 l 0,-323.8 -90.2,0 C -0.3,556.4 6.6,538.9 28.8,516 l 433,-433.4 c 10.5,-10.9 24.3,-16.3 38.2,-16.8 13.9,0.5 27.7,5.9 38.2,16.8 l 433,433.4 c 22.1,23 29,40.4 -3.2,40.4 l 0,0 z"
           inkscape:connector-curvature="0"
           style="fill:#ffffff" />
      </g>
    </g>
  </g>
</svg>
