<?xml version="1.0" encoding="UTF-8" standalone="no"?>
<!-- Created with Inkscape (http://www.inkscape.org/) -->

<svg
   xmlns:dc="http://purl.org/dc/elements/1.1/"
   xmlns:cc="http://creativecommons.org/ns#"
   xmlns:rdf="http://www.w3.org/1999/02/22-rdf-syntax-ns#"
   xmlns:svg="http://www.w3.org/2000/svg"
   xmlns="http://www.w3.org/2000/svg"
   xmlns:sodipodi="http://sodipodi.sourceforge.net/DTD/sodipodi-0.dtd"
   xmlns:inkscape="http://www.inkscape.org/namespaces/inkscape"
   width="100"
   height="100"
   viewBox="0 0 100 100"
   id="svg2"
   version="1.1"
   inkscape:version="0.91 r13725"
   sodipodi:docname="Install.svg">
  <defs
     id="defs4">
    <linearGradient
       id="linearGradient-1"
       y2="157.95518"
       x2="92.696571"
       y1="17.661398"
       x1="92.696587"
       gradientTransform="scale(0.97317604,1.0275633)"
       gradientUnits="userSpaceOnUse">
      <stop
         id="stop4015"
         offset="0%"
         stop-color="#97D9F6" />
      <stop
         id="stop4017"
         offset="92.024499%"
         stop-color="#0F80CC" />
      <stop
         id="stop4019"
         offset="100%"
         stop-color="#0F80CC" />
    </linearGradient>
  </defs>
  <sodipodi:namedview
     id="base"
     pagecolor="#141e1e"
     bordercolor="#666666"
     borderopacity="1.0"
     inkscape:pageopacity="0"
     inkscape:pageshadow="2"
     inkscape:zoom="0.98994949"
     inkscape:cx="447.50268"
     inkscape:cy="149.99688"
     inkscape:document-units="px"
     inkscape:current-layer="layer1"
     showgrid="false"
     inkscape:window-width="1366"
     inkscape:window-height="715"
     inkscape:window-x="-8"
     inkscape:window-y="-8"
     inkscape:window-maximized="1"
     units="px" />
  <metadata
     id="metadata7">
    <rdf:RDF>
      <cc:Work
         rdf:about="">
        <dc:format>image/svg+xml</dc:format>
        <dc:type
           rdf:resource="http://purl.org/dc/dcmitype/StillImage" />
        <dc:title></dc:title>
      </cc:Work>
    </rdf:RDF>
  </metadata>
  <g
     inkscape:label="Layer 1"
     inkscape:groupmode="layer"
     id="layer1"
     transform="translate(0,-952.36216)">
    <g
       id="g4600"
       transform="matrix(0.10103175,0,0,0.10206154,-0.5103175,951.33124)"
       style="fill:#ffffff">
      <path
         id="path4602"
         d="m 74.3,369.1 c 5.2,17.7 12.3,34.7 21.3,50.7 l -25.8,32.5 c -8.4,10.6 -7.5,25.8 2,35.3 l 44.4,44.4 c 9.6,9.6 24.7,10.4 35.3,2 l 32.3,-25.5 c 16.6,9.6 34.3,17 52.7,22.3 l 4.8,41.5 c 1.6,13.5 12.9,23.5 26.4,23.5 l 62.8,0 c 13.5,0 24.8,-10.1 26.4,-23.5 l 4.6,-40.1 c 19.8,-5.2 38.7,-12.8 56.5,-22.8 l 31.2,24.7 c 10.6,8.4 25.8,7.5 35.3,-2 l 44.4,-44.4 c 9.6,-9.6 10.4,-24.7 2,-35.3 l -24.3,-30.8 c 10.1,-17.5 18,-36.1 23.2,-55.5 l 37.4,-4.3 c 13.5,-1.6 23.5,-12.9 23.5,-26.4 l 0,-62.8 c 0,-13.5 -10.1,-24.8 -23.5,-26.4 l -36.9,-4.3 C 525.3,222.7 517.7,204.3 508,187 l 22.7,-28.7 c 8.4,-10.6 7.5,-25.8 -2,-35.3 L 484.4,78.7 c -9.6,-9.6 -24.7,-10.4 -35.3,-2 L 421.2,98.8 C 403.1,88.2 383.8,80.1 363.5,74.6 L 359.3,38.5 C 357.9,25.1 346.5,15 333.1,15 l -62.8,0 c -13.5,0 -24.8,10.1 -26.4,23.5 l -4.2,36.1 c -20.8,5.6 -40.7,14 -59.2,25 L 151.6,76.7 c -10.6,-8.4 -25.8,-7.5 -35.3,2 l -44.4,44.4 c -9.6,9.6 -10.4,24.7 -2,35.3 L 94.1,189 c -9.7,17.5 -17,36.1 -21.9,55.4 l -38.7,4.4 C 20.1,250.4 10,261.7 10,275.2 l 0,62.8 c 0,13.5 10.1,24.8 23.5,26.4 l 40.8,4.7 z M 301.7,199.3 c 57.2,0 103.8,46.6 103.8,103.8 0,57.2 -46.6,103.8 -103.8,103.8 C 244.5,406.8 198,360.2 198,303 198,245.8 244.5,199.3 301.7,199.3 Z"
         inkscape:connector-curvature="0"
         style="fill:#ffffff" />
      <path
         id="path4604"
         d="m 922.2,384.5 -33.1,-28 c -10.2,-8.6 -25.2,-8.2 -34.9,0.9 l -18.3,17.1 C 820.4,367 804,361.8 787.1,358.7 l -5.2,-25.2 c -2.6,-13 -14.7,-22.1 -28,-21 l -43.2,3.7 c -13.2,1.2 -23.7,12 -24.1,25.3 l -0.8,25.7 c -16.6,6 -32.3,14.2 -46.6,24.5 l -21.9,-14.5 c -11.1,-7.4 -26,-5.3 -34.6,4.9 l -28,33.3 c -8.6,10.2 -8.2,25.2 0.9,34.9 l 19.1,20.4 c -6.6,14.9 -11.4,30.6 -14.1,46.7 l -27.3,5.6 c -13,2.6 -22.1,14.7 -21,28 l 3.7,43.2 c 1.2,13.2 12,23.7 25.3,24.1 l 29.5,0.9 c 5.4,14.1 12.4,27.4 20.9,40 l -16.5,24.9 c -7.4,11.1 -5.3,26 4.9,34.6 l 33.1,28 c 10.2,8.6 25.2,8.2 34.9,-0.9 l 21.7,-20.3 c 14.2,6.6 29.1,11.6 44.5,14.5 l 6,29.6 c 2.6,13 14.7,22.1 28,21 l 43.2,-3.7 c 13.2,-1.2 23.7,-12 24.1,-25.3 l 0.9,-29 c 15.8,-5.6 30.7,-13.1 44.5,-22.5 l 23.9,15.8 c 11.1,7.4 26,5.3 34.6,-4.9 l 28,-33.1 c 8.6,-10.2 8.2,-25.2 -0.9,-34.9 l -19.2,-20.4 c 7,-14.9 12.2,-30.7 15.1,-46.9 l 26.3,-5.4 c 13,-2.6 22.1,-14.7 21,-28 l -3.7,-43.2 c -1.2,-13.2 -12,-23.7 -25.3,-24.1 l -26.4,-0.8 c -5.5,-15.3 -12.8,-29.9 -22,-43.3 l 14.4,-21.7 c 7.7,-11.1 5.6,-26.1 -4.6,-34.7 z M 759.4,634.3 c -46.7,4 -87.9,-30.8 -91.8,-77.5 -4,-46.7 30.8,-87.9 77.5,-91.8 46.7,-4 87.9,30.8 91.8,77.5 3.9,46.7 -30.9,87.9 -77.5,91.8 z"
         inkscape:connector-curvature="0"
         style="fill:#ffffff" />
      <path
         id="path4606"
         d="m 225.5,750.6 c -13.2,1.4 -23.4,12.5 -23.5,25.9 l -0.3,26.6 c -0.2,13.4 9.7,24.7 22.9,26.4 l 19.6,2.5 c 3.3,11.9 7.9,23.2 13.9,34 l -12.6,15.6 c -8.4,10.4 -7.8,25.3 1.6,34.9 l 18.6,19 c 9.4,9.6 24.3,10.6 34.9,2.4 l 15.7,-12.1 c 11,6.5 22.7,11.7 34.9,15.2 l 2.1,20.2 c 1.4,13.2 12.5,23.4 25.9,23.5 l 26.6,0.3 c 13.4,0.2 24.7,-9.7 26.4,-22.9 l 2.4,-19.1 c 13.2,-3.3 25.9,-8.2 37.8,-14.7 l 14.7,11.9 c 10.4,8.4 25.3,7.8 34.9,-1.6 L 541,920 c 9.6,-9.4 10.6,-24.3 2.4,-34.9 l -11.3,-14.6 c 6.9,-11.6 12.3,-23.9 16,-36.8 l 17.5,-1.8 c 13.2,-1.4 23.4,-12.5 23.5,-25.9 l 0.3,-26.6 C 589.6,766 579.7,754.7 566.5,753 l -17,-2.2 C 546.2,738 541.4,725.6 535.1,714 l 10.6,-13 c 8.4,-10.4 7.8,-25.3 -1.6,-34.9 l -18.6,-19 c -9.4,-9.6 -24.3,-10.6 -34.9,-2.4 l -12.7,9.8 c -12,-7.3 -24.8,-12.8 -38.3,-16.6 l -1.7,-16.5 C 436.5,608.2 425.4,598 412,597.9 l -26.6,-0.3 c -13.4,-0.2 -24.7,9.7 -26.4,22.9 l -2.1,16.4 c -13.9,3.6 -27.2,9 -39.6,16.2 l -13.1,-10.7 c -10.4,-8.4 -25.3,-7.8 -34.9,1.6 l -19.1,18.7 c -9.6,9.4 -10.6,24.3 -2.4,34.9 l 11.2,14.5 c -6.5,11.6 -11.7,23.9 -15,36.8 l -18.5,1.7 z m 171.7,-30.1 c 38.2,0.4 68.8,31.9 68.3,70 -0.4,38.2 -31.9,68.8 -70,68.3 -38.2,-0.4 -68.8,-31.9 -68.3,-70 0.4,-38.1 31.8,-68.7 70,-68.3 z"
         inkscape:connector-curvature="0"
         style="fill:#ffffff" />
    </g>
  </g>
</svg>
