<?xml version="1.0" encoding="UTF-8" standalone="no"?>
<!DOCTYPE svg PUBLIC "-//W3C//DTD SVG 1.1//EN" "http://www.w3.org/Graphics/SVG/1.1/DTD/svg11.dtd">
<svg width="100%" height="100%" viewBox="0 0 100 100" version="1.1" xmlns="http://www.w3.org/2000/svg" xmlns:xlink="http://www.w3.org/1999/xlink" xml:space="preserve" style="fill-rule:evenodd;clip-rule:evenodd;stroke-linejoin:round;stroke-miterlimit:1.41421;">
    <g>
        <g>
            <g>
                <path d="M86.981,40.693C90.748,44.459 90.748,50.619 86.981,54.385L55.38,85.986C51.614,89.753 45.448,89.753 41.683,85.986L10.091,54.385C6.314,50.619 6.314,44.454 10.091,40.693L41.683,9.091C45.449,5.32 51.615,5.32 55.38,9.091L86.981,40.693Z" style="fill:url(#_Radial1);fill-rule:nonzero;"/>
            </g>
        </g>
        <g>
            <path d="M57.435,24.43C57.349,19.47 53.303,15.472 48.322,15.477C43.341,15.482 39.295,19.485 39.209,24.451L39.23,48.128L57.478,48.107L57.456,24.43L57.435,24.43Z" style="fill:white;fill-rule:nonzero;"/>
            <path d="M39.251,71.8C39.348,76.766 43.404,80.763 48.375,80.758C53.367,80.752 57.413,76.749 57.488,71.784L57.499,71.789L57.478,48.111L39.23,48.128L39.251,71.8Z" style="fill:rgb(165,167,169);fill-rule:nonzero;"/>
            <g>
                <path d="M54.616,28.168C54.099,27.619 53.345,27.189 52.485,26.995C51.797,26.844 50.677,26.833 49.515,27.097L49.515,24.37C50.236,23.951 50.677,23.176 50.677,22.336C50.677,21.04 49.622,19.98 48.331,19.98C47.019,19.98 45.964,21.04 45.964,22.336C45.964,23.181 46.416,23.956 47.148,24.375L47.148,27.904C44.62,29.125 42.661,31.38 42.521,34.43C42.392,37.443 44.781,39.617 47.148,41.709L47.148,50.882C45.158,52.248 43.038,53.835 42.952,56.687C42.855,60.071 45.19,62.099 47.245,63.708C47.277,65.145 47.309,66.598 47.352,67.975C47.395,69.508 47.449,70.778 47.493,71.838C46.417,72.692 45.427,73.161 45.405,73.172L45.598,73.769C46.158,73.667 46.847,73.479 47.557,73.194C47.772,76.981 47.997,77.073 48.203,77.159L48.332,77.213L48.439,77.159C48.676,77.062 48.934,76.949 49.17,72.403C50.978,71.316 52.613,69.573 52.635,66.996C52.667,65.173 51.043,63.182 49.45,61.886C49.493,59.324 49.514,56.926 49.514,55.231L49.514,53.106C51.623,51.665 54.098,49.84 54.098,46.473C54.098,43.659 51.785,41.577 49.514,39.57L49.514,30.634C50.009,31.075 50.665,31.404 51.386,31.576C51.752,31.667 52.117,31.71 52.484,31.71C52.731,31.71 52.979,31.689 53.215,31.646L53.796,31.543L53.4,31.117C53.379,31.096 53.034,30.73 52.528,30.482C52.754,30.493 52.98,30.525 53.206,30.589C53.476,30.665 53.819,30.826 54.185,31.084L54.378,31.213L54.562,31.068C54.906,30.794 55.132,30.444 55.218,30.073C55.369,29.433 55.154,28.76 54.616,28.168ZM46.288,22.336C46.288,21.211 47.202,20.297 48.332,20.297C49.451,20.297 50.365,21.211 50.365,22.336C50.365,23.089 49.946,23.778 49.29,24.133L49.192,24.154C49.192,24.154 49.192,25.3 49.192,27.167C48.611,27.312 48.019,27.511 47.461,27.753C47.461,25.553 47.461,24.17 47.461,24.17L47.363,24.133C46.696,23.778 46.288,23.09 46.288,22.336ZM42.845,34.447C42.974,31.547 44.803,29.427 47.149,28.249C47.256,28.201 47.364,28.147 47.461,28.099C47.987,27.862 48.547,27.668 49.107,27.518C48.935,27.749 48.763,28.072 48.656,28.508C48.526,29.094 48.699,29.713 49.15,30.267C48.656,30.434 48.053,30.687 47.462,31.074C47.364,31.138 47.257,31.214 47.15,31.294C46.224,31.983 45.45,33.021 45.385,34.56C45.342,35.636 46.095,36.728 47.15,37.81L47.15,41.285C44.91,39.3 42.727,37.218 42.845,34.447ZM49.192,30.584L49.192,49.404C48.709,49.807 48.128,50.216 47.471,50.663C47.471,50.663 47.471,50.669 47.46,50.669L47.46,31.445C48.031,31.036 48.655,30.762 49.192,30.584ZM47.148,31.687L47.148,37.352C46.266,36.405 45.664,35.469 45.696,34.57C45.75,33.252 46.374,32.333 47.148,31.687ZM47.461,55.229C47.461,55.025 47.461,54.815 47.461,54.594C47.934,54.196 48.515,53.787 49.192,53.319C49.192,54.024 49.192,54.67 49.192,55.229C49.192,56.725 49.181,59.049 49.149,61.625C49.149,61.76 49.149,61.895 49.138,62.029C49.127,62.927 49.106,63.847 49.084,64.772C49.084,64.912 49.084,65.046 49.084,65.186C49.041,66.994 48.998,68.796 48.934,70.426C48.579,70.862 48.192,71.244 47.793,71.583C47.696,69.317 47.621,66.596 47.567,63.959C47.567,63.819 47.556,63.685 47.556,63.551C47.535,62.529 47.513,61.523 47.513,60.565C47.502,60.404 47.502,60.248 47.502,60.086C47.472,58.14 47.461,56.419 47.461,55.229ZM48.332,76.868C48.139,76.792 47.987,75.28 47.869,73.064C48.192,72.923 48.515,72.768 48.838,72.595C48.72,75.06 48.547,76.776 48.332,76.868ZM52.324,66.99C52.292,69.427 50.806,71.025 49.192,72.025C49.074,72.09 48.966,72.155 48.859,72.219C48.525,72.412 48.181,72.579 47.858,72.719C47.751,72.768 47.643,72.811 47.536,72.854C46.707,73.187 45.965,73.381 45.534,73.457C45.534,73.457 46.46,73.032 47.514,72.23C47.611,72.155 47.707,72.074 47.815,71.988C48.181,71.686 48.568,71.337 48.913,70.95C49.02,70.82 49.139,70.691 49.247,70.556C50.032,69.572 50.613,68.351 50.57,66.919C50.549,66.295 50.075,65.677 49.408,65.053C49.429,64.127 49.44,63.201 49.451,62.293C50.957,63.579 52.346,65.414 52.324,66.99ZM49.269,69.987C49.29,69.368 49.312,68.695 49.333,67.964C49.354,67.162 49.365,66.323 49.387,65.484C49.893,65.979 50.247,66.468 50.258,66.926C50.29,68.099 49.871,69.12 49.269,69.987ZM53.776,46.471C53.776,49.58 51.516,51.34 49.515,52.717C49.408,52.792 49.3,52.863 49.192,52.938C49.149,52.965 49.117,52.992 49.074,53.024C48.461,53.439 47.923,53.821 47.461,54.181C47.353,54.273 47.245,54.359 47.149,54.45C46.31,55.177 45.837,55.876 45.804,56.769C45.772,58.097 46.321,59.211 47.192,60.212C47.203,61.201 47.213,62.245 47.235,63.3C45.288,61.761 43.189,59.814 43.276,56.698C43.34,54.089 45.277,52.561 47.149,51.269C47.256,51.194 47.364,51.119 47.461,51.048C47.525,51.011 47.579,50.968 47.644,50.925C48.225,50.527 48.742,50.166 49.193,49.812C49.301,49.726 49.409,49.639 49.516,49.553C50.614,48.628 51.238,47.735 51.238,46.47C51.238,45.491 50.507,44.474 49.516,43.457L49.516,39.993C51.668,41.898 53.776,43.883 53.776,46.471ZM47.181,59.7C46.525,58.845 46.094,57.888 46.116,56.779C46.137,56.069 46.504,55.477 47.149,54.874L47.149,55.229C47.148,56.402 47.159,57.963 47.181,59.7ZM49.516,49.135L49.516,43.916C50.344,44.804 50.936,45.665 50.936,46.472C50.936,47.536 50.42,48.332 49.516,49.135Z" style="fill:white;fill-rule:nonzero;"/>
                <path d="M52.421,27.302C52.151,27.238 51.894,27.211 51.625,27.2L51.636,27.189C51.604,27.189 51.582,27.189 51.549,27.189C51.495,27.189 51.452,27.184 51.388,27.184C51.173,27.184 50.968,27.2 50.764,27.232C50.355,27.27 49.936,27.329 49.516,27.42C49.409,27.446 49.301,27.468 49.193,27.495C48.612,27.645 48.02,27.845 47.462,28.098C47.364,28.146 47.257,28.2 47.15,28.248C44.804,29.426 42.975,31.546 42.846,34.446C42.728,37.217 44.911,39.299 47.15,41.284L47.15,37.81C46.095,36.728 45.342,35.636 45.385,34.56C45.449,33.021 46.224,31.983 47.15,31.294C47.257,31.213 47.365,31.138 47.462,31.074C48.075,30.676 48.699,30.417 49.193,30.251C49.301,30.224 49.398,30.192 49.495,30.165C49.947,30.665 50.636,31.074 51.474,31.268C51.808,31.349 52.141,31.392 52.486,31.392C52.722,31.392 52.949,31.371 53.174,31.333C53.174,31.333 52.679,30.816 52.055,30.633C51.743,30.536 50.957,30.574 50.957,30.574L51.366,30.37C51.366,30.359 51.764,30.16 52.399,30.16C52.689,30.16 52.98,30.203 53.281,30.284C53.604,30.365 53.959,30.548 54.357,30.822C54.648,30.591 54.831,30.311 54.917,29.993C55.176,28.9 54.057,27.695 52.421,27.302Z" style="fill:rgb(49,49,112);fill-rule:nonzero;"/>
                <path d="M52.496,28.814C52.496,29.078 52.7,29.288 52.959,29.288C53.217,29.288 53.433,29.078 53.433,28.814C53.433,28.556 53.217,28.346 52.959,28.346C52.7,28.346 52.496,28.556 52.496,28.814Z" style="fill:white;fill-rule:nonzero;"/>
                <path d="M54.143,31.886C54.465,31.886 54.724,31.693 54.735,31.682C54.789,31.644 54.789,31.579 54.756,31.536C54.724,31.488 54.659,31.482 54.616,31.515C54.595,31.526 54.25,31.784 53.862,31.618C53.722,31.558 53.69,31.408 53.636,31.23C53.582,31.037 53.539,30.816 53.302,30.709C52.851,30.478 52.463,30.795 52.334,30.988C52.302,31.037 52.313,31.101 52.355,31.134C52.398,31.172 52.473,31.155 52.505,31.107C52.516,31.091 52.807,30.692 53.215,30.897C53.356,30.962 53.388,31.107 53.431,31.279C53.485,31.478 53.538,31.704 53.775,31.811C53.905,31.864 54.024,31.886 54.143,31.886Z" style="fill:rgb(49,49,112);fill-rule:nonzero;"/>
                <path d="M49.192,24.155L49.29,24.134C49.946,23.779 50.365,23.09 50.365,22.337C50.365,21.212 49.451,20.298 48.332,20.298C47.202,20.298 46.288,21.212 46.288,22.337C46.288,23.09 46.696,23.779 47.363,24.134L47.461,24.171C47.461,24.171 47.461,25.554 47.461,27.754C48.02,27.512 48.611,27.313 49.192,27.168C49.192,25.301 49.192,24.155 49.192,24.155Z" style="fill:rgb(49,49,112);fill-rule:nonzero;"/>
                <path d="M48.332,76.868C48.547,76.776 48.72,75.059 48.838,72.596C48.515,72.769 48.192,72.924 47.869,73.065C47.987,75.28 48.139,76.792 48.332,76.868Z" style="fill:rgb(49,49,112);fill-rule:nonzero;"/>
                <path d="M47.461,31.445L47.461,50.669L47.472,50.669C48.128,50.216 48.709,49.808 49.193,49.404L49.193,30.584C48.655,30.762 48.031,31.036 47.461,31.445Z" style="fill:rgb(49,49,112);fill-rule:nonzero;"/>
                <path d="M49.516,39.994L49.516,43.458C50.506,44.475 51.238,45.492 51.238,46.471C51.238,47.735 50.614,48.629 49.516,49.554C49.409,49.64 49.301,49.727 49.193,49.813C48.742,50.167 48.225,50.528 47.644,50.926C47.58,50.969 47.526,51.012 47.461,51.049C47.363,51.119 47.256,51.195 47.149,51.27C45.277,52.562 43.34,54.089 43.276,56.699C43.189,59.814 45.288,61.761 47.235,63.301C47.214,62.246 47.203,61.202 47.192,60.213C46.321,59.212 45.772,58.098 45.804,56.77C45.836,55.876 46.31,55.177 47.149,54.451C47.246,54.36 47.353,54.274 47.461,54.182C47.923,53.822 48.461,53.44 49.074,53.025C49.117,52.993 49.149,52.966 49.192,52.939C49.3,52.864 49.408,52.793 49.515,52.718C51.516,51.341 53.776,49.581 53.776,46.472C53.776,43.883 51.668,41.898 49.516,39.994Z" style="fill:rgb(49,49,112);fill-rule:nonzero;"/>
                <path d="M47.461,54.595C47.461,54.816 47.461,55.026 47.461,55.23C47.461,56.419 47.472,58.14 47.504,60.088C47.504,60.249 47.504,60.405 47.515,60.567C47.515,61.525 47.536,62.531 47.558,63.553C47.558,63.687 47.569,63.822 47.569,63.961C47.623,66.598 47.698,69.319 47.795,71.585C48.193,71.246 48.58,70.863 48.936,70.428C49,68.798 49.043,66.995 49.086,65.188C49.086,65.048 49.086,64.914 49.086,64.774C49.107,63.849 49.129,62.929 49.14,62.031C49.151,61.896 49.151,61.761 49.151,61.627C49.183,59.051 49.194,56.727 49.194,55.231C49.194,54.671 49.194,54.026 49.194,53.321C48.515,53.788 47.934,54.196 47.461,54.595Z" style="fill:rgb(49,49,112);fill-rule:nonzero;"/>
                <path d="M49.451,62.294C49.44,63.202 49.43,64.128 49.408,65.054C50.075,65.678 50.549,66.296 50.57,66.92C50.613,68.352 50.032,69.572 49.247,70.557C49.139,70.692 49.02,70.821 48.913,70.951C48.568,71.338 48.182,71.687 47.815,71.989C47.708,72.075 47.611,72.156 47.514,72.231C46.459,73.033 45.534,73.458 45.534,73.458C45.965,73.383 46.707,73.188 47.536,72.855C47.643,72.812 47.751,72.769 47.858,72.72C48.181,72.58 48.525,72.413 48.859,72.22C48.966,72.156 49.074,72.091 49.192,72.026C50.806,71.026 52.292,69.427 52.324,66.991C52.346,65.414 50.957,63.579 49.451,62.294Z" style="fill:rgb(49,49,112);fill-rule:nonzero;"/>
            </g>
        </g>
    </g>
    <defs>
        <radialGradient id="_Radial1" cx="0" cy="0" r="1" gradientUnits="userSpaceOnUse" gradientTransform="matrix(41.274,0,0,41.2742,48.5322,47.537)"><stop offset="0%" style="stop-color:rgb(0,171,235);stop-opacity:1"/><stop offset="0%" style="stop-color:rgb(51,59,139);stop-opacity:1"/><stop offset="75%" style="stop-color:rgb(33,28,81);stop-opacity:1"/><stop offset="100%" style="stop-color:rgb(23,16,67);stop-opacity:1"/></radialGradient>
    </defs>
</svg>
