<?xml version="1.0" encoding="UTF-8" standalone="no"?>
<!-- Created with Inkscape (http://www.inkscape.org/) -->

<svg
   xmlns:dc="http://purl.org/dc/elements/1.1/"
   xmlns:cc="http://creativecommons.org/ns#"
   xmlns:rdf="http://www.w3.org/1999/02/22-rdf-syntax-ns#"
   xmlns:svg="http://www.w3.org/2000/svg"
   xmlns="http://www.w3.org/2000/svg"
   xmlns:sodipodi="http://sodipodi.sourceforge.net/DTD/sodipodi-0.dtd"
   xmlns:inkscape="http://www.inkscape.org/namespaces/inkscape"
   width="100"
   height="100"
   viewBox="0 0 100 100"
   id="svg2"
   version="1.1"
   inkscape:version="0.91 r13725"
   sodipodi:docname="Logout.svg"
   inkscape:export-filename="C:\Users\ahmed\Downloads\DeleteDb.png"
   inkscape:export-xdpi="90"
   inkscape:export-ydpi="90">
  <defs
     id="defs4" />
  <sodipodi:namedview
     id="base"
     pagecolor="#323232"
     bordercolor="#666666"
     borderopacity="1.0"
     inkscape:pageopacity="0"
     inkscape:pageshadow="2"
     inkscape:zoom="2.8"
     inkscape:cx="44.121251"
     inkscape:cy="59.808863"
     inkscape:document-units="px"
     inkscape:current-layer="layer1"
     showgrid="false"
     units="px"
     inkscape:window-width="1366"
     inkscape:window-height="715"
     inkscape:window-x="-8"
     inkscape:window-y="-8"
     inkscape:window-maximized="1" />
  <metadata
     id="metadata7">
    <rdf:RDF>
      <cc:Work
         rdf:about="">
        <dc:format>image/svg+xml</dc:format>
        <dc:type
           rdf:resource="http://purl.org/dc/dcmitype/StillImage" />
        <dc:title></dc:title>
      </cc:Work>
    </rdf:RDF>
  </metadata>
  <g
     inkscape:label="Layer 1"
     inkscape:groupmode="layer"
     id="layer1"
     transform="translate(0,-952.36214)">
    <g
       id="g3940"
       transform="matrix(0.10102041,0,0,0.11873351,-0.5102041,942.99538)"
       style="fill:#ffffff">
      <path
         id="path3942"
         d="m 347.7,562.2 c -34.4,0 -62.2,-27.8 -62.2,-62.2 l 0,0 c 0,-34.4 27.8,-62.2 62.2,-62.2 l 423.6,0 c 34.4,0 62.2,27.8 62.2,62.2 l 0,0 c 0,34.4 -27.9,62.2 -62.2,62.2 l -423.6,0 z"
         inkscape:connector-curvature="0"
         style="fill:#ffffff" />
      <path
         id="path3944"
         d="m 700.6,819.1 c 0,16.4 -5.6,34.6 -19,42 -10.5,5.6 -21.2,10.9 -32.1,15.7 -58.1,25.7 -123.1,40.1 -191.7,40.1 C 210.5,916.9 10,730.2 10,500 10,269.8 210.5,83.1 457.8,83.1 c 70.8,0 137.7,15.3 197.2,42.5 10.3,4.7 20.4,9.8 30.3,15.2 0,0 0,0 0,0 17.7,9.9 19.1,25.6 19.1,42.1 0,32.4 -28.2,58.7 -63.1,58.7 -5.7,0 -11,0.5 -16.5,-2 -8.2,-4.6 -16.7,-8.8 -25.3,-12.7 -42.9,-19.3 -90.9,-30.1 -141.7,-30.1 -179.9,0 -325.6,135.7 -325.6,303.2 0,167.4 145.8,303.2 325.6,303.2 49.8,0 96.9,-10.4 139.1,-29 8.2,-3.6 16.2,-7.5 24,-11.7 4.8,-2.3 10.9,-2.1 16.6,-2.1 34.8,0 63.1,26.3 63.1,58.7 z"
         inkscape:connector-curvature="0"
         style="fill:#ffffff" />
      <path
         id="path3946"
         d="m 746.1,330.1 c 0,-10.3 5.7,-20.1 15.6,-24.9 9.9,-4.8 21.2,-3.2 29.2,3.2 l 171.5,134.9 c 16.8,13.2 27.6,33.7 27.6,56.8 0,23 -10.8,43.5 -27.6,56.8 L 792.5,690.5 c -8.4,6.6 -20.1,8.2 -30.3,3.3 C 752,688.8 746,678.6 746,668 l 0,-337.9 0.1,0 z"
         inkscape:connector-curvature="0"
         style="fill:#ffffff" />
    </g>
  </g>
</svg>
