<?xml version="1.0" encoding="UTF-8" standalone="no"?>
<!-- Created with Inkscape (http://www.inkscape.org/) -->

<svg
   xmlns:dc="http://purl.org/dc/elements/1.1/"
   xmlns:cc="http://creativecommons.org/ns#"
   xmlns:rdf="http://www.w3.org/1999/02/22-rdf-syntax-ns#"
   xmlns:svg="http://www.w3.org/2000/svg"
   xmlns="http://www.w3.org/2000/svg"
   xmlns:sodipodi="http://sodipodi.sourceforge.net/DTD/sodipodi-0.dtd"
   xmlns:inkscape="http://www.inkscape.org/namespaces/inkscape"
   width="100"
   height="100"
   viewBox="0 0 100 100"
   id="svg2"
   version="1.1"
   inkscape:version="0.91 r13725"
   sodipodi:docname="Settings.svg"
   inkscape:export-filename="C:\Users\ahmed\Downloads\Refresh.png"
   inkscape:export-xdpi="90"
   inkscape:export-ydpi="90">
  <defs
     id="defs4">
    <linearGradient
       id="linearGradient-1"
       y2="157.95518"
       x2="92.696571"
       y1="17.661398"
       x1="92.696587"
       gradientTransform="scale(0.97317604,1.0275633)"
       gradientUnits="userSpaceOnUse">
      <stop
         id="stop4015"
         offset="0%"
         stop-color="#97D9F6" />
      <stop
         id="stop4017"
         offset="92.024499%"
         stop-color="#0F80CC" />
      <stop
         id="stop4019"
         offset="100%"
         stop-color="#0F80CC" />
    </linearGradient>
  </defs>
  <sodipodi:namedview
     id="base"
     pagecolor="#141e1e"
     bordercolor="#666666"
     borderopacity="1.0"
     inkscape:pageopacity="0"
     inkscape:pageshadow="2"
     inkscape:zoom="3.959798"
     inkscape:cx="63.411868"
     inkscape:cy="62.93151"
     inkscape:document-units="px"
     inkscape:current-layer="layer1"
     showgrid="false"
     inkscape:window-width="1366"
     inkscape:window-height="715"
     inkscape:window-x="-8"
     inkscape:window-y="-8"
     inkscape:window-maximized="1"
     units="px" />
  <metadata
     id="metadata7">
    <rdf:RDF>
      <cc:Work
         rdf:about="">
        <dc:format>image/svg+xml</dc:format>
        <dc:type
           rdf:resource="http://purl.org/dc/dcmitype/StillImage" />
        <dc:title></dc:title>
      </cc:Work>
    </rdf:RDF>
  </metadata>
  <g
     inkscape:label="Layer 1"
     inkscape:groupmode="layer"
     id="layer1"
     transform="translate(0,-952.36216)">
    <g
       id="g4820"
       transform="matrix(0.10340598,0,0,0.10102041,-1.7029882,951.85195)"
       style="fill:#ffffff">
      <g
         id="g4822"
         style="fill:#ffffff">
        <path
           id="path4824"
           d="m 500,672.5 c 47.5,0 88.2,-16.9 121.9,-50.6 33.7,-33.7 50.6,-74.4 50.6,-121.9 0,-47.5 -16.9,-88.2 -50.6,-121.9 -33.7,-33.7 -74.4,-50.6 -121.9,-50.6 -47.5,0 -88.2,16.9 -121.9,50.6 -33.7,33.7 -50.6,74.4 -50.6,121.9 0,47.5 16.9,88.2 50.6,121.9 33.7,33.7 74.4,50.6 121.9,50.6 z m 365.8,-124.2 103.5,80.5 c 10.7,7.7 12.3,18.4 4.6,32.2 L 875,831.3 c -6.1,10.7 -16.1,13.8 -29.9,9.2 L 723.2,792.2 c -32.2,23 -59.8,39.1 -82.8,48.3 L 622,969.3 c -3.1,13.8 -10.7,20.7 -23,20.7 l -197.9,0 c -12.3,0 -19.9,-6.9 -23,-20.7 L 359.7,840.5 C 330.6,828.2 303,812.1 276.9,792.2 L 155,840.5 c -13.8,4.6 -23.8,1.5 -29.9,-9.2 L 26.1,661 C 18.4,647.2 20,636.5 30.7,628.8 l 103.5,-80.5 c -1.5,-10.7 -2.3,-26.8 -2.3,-48.3 0,-21.5 0.8,-37.6 2.3,-48.3 L 30.7,371.2 C 20,363.5 18.4,352.8 26.1,339 L 125,168.7 c 6.1,-10.7 16.1,-13.8 29.9,-9.2 l 121.9,48.3 c 32.2,-23 59.8,-39.1 82.8,-48.3 L 378,30.7 C 381.1,16.9 388.7,10 401,10 l 197.8,0 c 12.3,0 19.9,6.9 23,20.7 l 18.4,128.8 c 29.1,12.3 56.7,28.4 82.8,48.3 l 121.9,-48.3 c 13.8,-4.6 23.8,-1.5 29.9,9.2 L 973.9,339 c 7.7,13.8 6.1,24.5 -4.6,32.2 l -103.5,80.5 c 1.5,10.7 2.3,26.8 2.3,48.3 0,21.5 -0.8,37.6 -2.3,48.3 z"
           inkscape:connector-curvature="0"
           style="fill:#ffffff" />
      </g>
    </g>
  </g>
</svg>
