<?xml version="1.0" encoding="UTF-8" standalone="no"?>
<!-- Created with Inkscape (http://www.inkscape.org/) -->

<svg
   xmlns:dc="http://purl.org/dc/elements/1.1/"
   xmlns:cc="http://creativecommons.org/ns#"
   xmlns:rdf="http://www.w3.org/1999/02/22-rdf-syntax-ns#"
   xmlns:svg="http://www.w3.org/2000/svg"
   xmlns="http://www.w3.org/2000/svg"
   xmlns:sodipodi="http://sodipodi.sourceforge.net/DTD/sodipodi-0.dtd"
   xmlns:inkscape="http://www.inkscape.org/namespaces/inkscape"
   width="100"
   height="100"
   viewBox="0 0 100 100"
   id="svg2"
   version="1.1"
   inkscape:version="0.91 r13725"
   sodipodi:docname="UserDelete.svg"
   inkscape:export-filename="C:\Users\ahmed\Downloads\Sell.png"
   inkscape:export-xdpi="90"
   inkscape:export-ydpi="90">
  <defs
     id="defs4" />
  <sodipodi:namedview
     id="base"
     pagecolor="#323232"
     bordercolor="#666666"
     borderopacity="1.0"
     inkscape:pageopacity="0"
     inkscape:pageshadow="2"
     inkscape:zoom="2.8"
     inkscape:cx="44.121251"
     inkscape:cy="59.808863"
     inkscape:document-units="px"
     inkscape:current-layer="layer1"
     showgrid="false"
     units="px"
     inkscape:window-width="1366"
     inkscape:window-height="715"
     inkscape:window-x="-8"
     inkscape:window-y="-8"
     inkscape:window-maximized="1" />
  <metadata
     id="metadata7">
    <rdf:RDF>
      <cc:Work
         rdf:about="">
        <dc:format>image/svg+xml</dc:format>
        <dc:type
           rdf:resource="http://purl.org/dc/dcmitype/StillImage" />
        <dc:title></dc:title>
      </cc:Work>
    </rdf:RDF>
  </metadata>
  <g
     inkscape:label="Layer 1"
     inkscape:groupmode="layer"
     id="layer1"
     transform="translate(0,-952.36214)">
    <g
       id="g4024"
       transform="matrix(0.10102015,0,0,0.10523395,-0.5102015,949.74496)"
       style="fill:#ffffff">
      <g
         id="g4026"
         transform="matrix(0.1,0,0,-0.1,0,511)"
         style="fill:#ffffff">
        <path
           id="path4028"
           d="m 4393.2,4785.7 c -505.3,-70.8 -922.6,-285.2 -1186.7,-608.7 -124.4,-151.2 -273.7,-455.5 -327.3,-664.2 -36.4,-141.6 -42.1,-231.6 -49.8,-700.5 l -9.6,-535.9 -61.2,-19.1 c -42.1,-11.5 -70.8,-40.2 -97.6,-93.8 -51.7,-105.3 -53.6,-493.8 -1.9,-679.5 70.8,-258.4 248.8,-576.1 428.7,-769.4 65.1,-70.8 97.6,-130.2 141.6,-258.4 74.6,-222 202.9,-463.2 333,-624 57.4,-70.8 99.5,-137.8 93.8,-147.4 -17.2,-26.8 -413.4,-233.5 -698.6,-363.7 -141.6,-65.1 -503.4,-222 -803.9,-348.4 -300.5,-126.3 -650.8,-279.4 -779,-340.7 -204.8,-99.5 -252.6,-132.1 -394.3,-271.8 C 526.8,-2083.9 165,-2950.9 113.3,-3714.6 L 100,-3906 l 179.9,-68.9 c 779,-298.6 1990.6,-482.3 3615.6,-553.1 765.6,-32.5 2002.1,-9.6 2723.7,51.7 l 149.3,11.5 -141.6,147.4 c -298.6,312 -490,689.1 -568.5,1112 -34.4,179.9 -28.7,553.2 7.7,752.2 116.7,620.1 514.9,1165.6 1068,1468.1 l 99.5,55.5 -84.2,36.4 c -503.4,216.2 -740.7,329.1 -1027.9,488 l -176.1,95.7 67,74.7 c 153.1,172.3 346.4,530.2 409.6,761.8 15.3,55.5 57.4,122.5 120.6,191.4 178,195.2 317.7,438.3 407.7,708.2 45.9,143.6 51.7,193.3 53.6,411.5 1.9,294.8 -24.9,375.2 -134,415.4 l -65.1,23 0,423 c 0,639.3 -46,899.6 -212.5,1213.5 -166.5,310.1 -377.1,514.9 -696.7,673.7 -399.9,197 -966.5,273.6 -1502.4,199 z"
           inkscape:connector-curvature="0"
           style="fill:#ffffff" />
        <path
           id="path4030"
           d="m 7821.2,-1121.1 c -639.3,-124.4 -1144.6,-581.9 -1351.3,-1223.1 -70.8,-218.2 -88,-601 -38.3,-844.1 88,-442.2 359.8,-855.6 725.4,-1106.3 134,-91.9 386.6,-206.7 557,-252.6 212.5,-57.4 624,-63.2 832.6,-9.6 608.7,155 1068,572.3 1263.3,1148.4 174.2,513 91.9,1112.1 -212.5,1554.2 -246.9,359.8 -662.3,635.5 -1092.9,723.5 -158.8,32.6 -537.8,38.3 -683.3,9.6 z m 17.2,-1196.2 315.8,-313.9 319.6,319.6 c 273.7,273.7 327.3,317.7 377.1,317.7 80.4,0 155,-70.8 155,-147.4 0,-47.9 -47.9,-105.3 -319.6,-379 l -319.6,-321.6 319.6,-321.6 c 281.4,-283.3 319.6,-329.2 319.6,-384.7 0,-82.3 -72.7,-155 -155,-155 -55.5,0 -101.5,38.3 -384.7,319.6 L 8144.6,-3062 7823,-3383.6 c -273.7,-273.7 -329.2,-319.6 -379,-319.6 -76.6,0 -147.4,74.7 -147.4,155 0,49.8 44,103.4 317.7,377.1 l 319.6,319.6 -298.6,296.7 c -164.6,162.7 -310.1,321.6 -323.5,352.2 -34.4,78.5 -1.9,160.8 74.7,195.2 32.5,13.4 76.6,21.1 97.6,15.3 21.3,-5.6 180.2,-153 354.3,-325.2 z"
           inkscape:connector-curvature="0"
           style="fill:#ffffff" />
      </g>
    </g>
  </g>
</svg>
