<?xml version="1.0" encoding="UTF-8" standalone="no"?>
<!-- Created with Inkscape (http://www.inkscape.org/) -->

<svg
   xmlns:dc="http://purl.org/dc/elements/1.1/"
   xmlns:cc="http://creativecommons.org/ns#"
   xmlns:rdf="http://www.w3.org/1999/02/22-rdf-syntax-ns#"
   xmlns:svg="http://www.w3.org/2000/svg"
   xmlns="http://www.w3.org/2000/svg"
   xmlns:sodipodi="http://sodipodi.sourceforge.net/DTD/sodipodi-0.dtd"
   xmlns:inkscape="http://www.inkscape.org/namespaces/inkscape"
   width="100"
   height="100"
   viewBox="0 0 100 100"
   id="svg2"
   version="1.1"
   inkscape:version="0.91 r13725"
   sodipodi:docname="UserSettings.svg"
   inkscape:export-filename="C:\Users\ahmed\Downloads\UserInfo.png"
   inkscape:export-xdpi="90"
   inkscape:export-ydpi="90">
  <defs
     id="defs4" />
  <sodipodi:namedview
     id="base"
     pagecolor="#323232"
     bordercolor="#666666"
     borderopacity="1.0"
     inkscape:pageopacity="0"
     inkscape:pageshadow="2"
     inkscape:zoom="3.959798"
     inkscape:cx="76.541989"
     inkscape:cy="52.386118"
     inkscape:document-units="px"
     inkscape:current-layer="layer1"
     showgrid="false"
     units="px"
     inkscape:window-width="1366"
     inkscape:window-height="715"
     inkscape:window-x="-8"
     inkscape:window-y="-8"
     inkscape:window-maximized="1" />
  <metadata
     id="metadata7">
    <rdf:RDF>
      <cc:Work
         rdf:about="">
        <dc:format>image/svg+xml</dc:format>
        <dc:type
           rdf:resource="http://purl.org/dc/dcmitype/StillImage" />
        <dc:title></dc:title>
      </cc:Work>
    </rdf:RDF>
  </metadata>
  <g
     inkscape:label="Layer 1"
     inkscape:groupmode="layer"
     id="layer1"
     transform="translate(0,-952.36214)">
    <g
       id="g4084"
       transform="matrix(0.10102041,0,0,0.10519605,-0.5102041,949.76411)"
       style="fill:#ffffff">
      <g
         id="g4086"
         transform="matrix(0.1,0,0,-0.1,0,511)"
         style="fill:#ffffff">
        <path
           id="path4088"
           d="m 4390.7,4787.4 c -505,-70.8 -922,-285 -1186,-608.3 -124.3,-151.1 -273.5,-455.3 -327.1,-663.8 -36.3,-141.6 -42.1,-231.5 -49.7,-700.1 l -9.6,-535.6 -61.2,-19.1 c -42.1,-11.5 -70.8,-40.2 -97.6,-93.7 -51.7,-105.2 -53.6,-495.5 -1.9,-679.1 70.8,-258.2 248.7,-575.8 428.5,-769 65,-70.8 97.6,-130.1 141.6,-258.2 74.6,-221.9 202.8,-462.9 332.9,-623.6 57.4,-70.8 99.5,-137.7 93.7,-147.3 C 3637,-337.3 3241,-543.9 2956,-674 c -141.6,-65 -503.1,-221.9 -803.4,-348.2 -300.3,-124.3 -652.3,-279.3 -782.4,-344.3 -206.6,-101.4 -254.4,-133.9 -394.1,-271.6 C 524.7,-2085.8 165,-2948.5 113.4,-3707.9 l -13.4,-191.3 179.8,-68.9 c 702,-267.8 1710.2,-438.1 3192.7,-535.6 725,-47.8 2477.3,-28.7 3162.1,34.4 l 128.2,13.4 -139.6,147.3 c -298.4,309.9 -489.7,686.8 -568.2,1109.5 -34.4,179.8 -28.7,552.9 7.7,751.8 116.7,619.8 514.6,1165 1067.4,1467.2 l 99.5,55.5 -84.2,36.3 c -503.1,216.2 -740.3,329 -1027.3,487.8 l -176,95.6 66.9,74.6 c 153,172.2 346.3,529.9 409.4,761.3 15.3,55.5 57.4,122.4 120.5,191.3 177.9,195.1 319.5,440 405.6,707.8 44,135.8 53.6,198.9 55.5,382.6 0,120.5 -3.8,250.6 -13.4,288.9 -17.2,80.3 -97.6,170.2 -149.2,170.2 -34.4,0 -36.3,23 -36.3,426.6 0,642.8 -45.9,902.9 -212.3,1216.6 -166.4,309.9 -376.9,514.6 -696.3,673.4 -399.9,197.1 -966.1,273.6 -1501.8,199 z"
           inkscape:connector-curvature="0"
           style="fill:#ffffff" />
        <path
           id="path4090"
           d="m 7795.8,-1322.5 0,-227.6 -57.4,-49.7 c -76.5,-63.1 -179.8,-91.8 -244.9,-67 -28.7,11.5 -118.6,86.1 -200.9,166.4 l -147.3,147.3 -242.9,-242.9 -242.9,-243 156.9,-160.7 c 141.6,-145.4 156.9,-168.4 156.9,-235.3 0,-74.6 -55.5,-187.5 -112.9,-231.4 -19.1,-15.3 -105.2,-23 -244.9,-24.9 l -216.2,0 0,-353.9 0,-353.9 216.2,0 c 200.9,0 220,-3.8 256.3,-42.1 61.2,-67 84.2,-126.3 86.1,-210.4 0,-70.8 -9.6,-88 -149.2,-227.6 l -151.1,-151.1 248.7,-248.7 248.7,-248.7 143.5,141.6 c 78.4,78.4 162.6,147.3 185.6,154.9 63.1,17.2 193.2,-28.7 256.3,-91.8 53.6,-53.6 55.5,-59.3 55.5,-264 l 0,-208.5 353.9,0 353.9,0 0,218.1 0,218.1 57.4,49.7 c 80.4,67 199,97.6 265.9,68.9 28.7,-11.5 112.9,-80.4 185.5,-154.9 l 132,-132 242.9,242.9 242.9,242.9 -151.1,158.8 c -128.2,132 -153,168.3 -153,220 1.9,82.2 63.1,216.2 111,242.9 22.9,11.5 133.9,21 250.6,21 l 212.2,0 0,353.9 0,353.9 -216.2,0 c -246.8,0 -283.1,15.3 -340.5,141.5 -59.3,132 -51.7,155 126.3,334.8 l 160.7,166.4 -246.8,246.8 -248.7,248.7 -162.6,-162.6 c -151.1,-151.1 -166.4,-160.7 -237.2,-158.8 -89.9,3.8 -183.7,47.8 -212.3,99.5 -9.6,21.1 -19.1,137.7 -19.1,258.3 l 0,221.9 -353.9,0 -353.9,0 0,-227.7 z m 677.1,-801.5 c 493.5,-231.5 614,-860.8 239.1,-1256.8 -382.6,-405.5 -1044.5,-294.6 -1285.5,214.3 -55.5,120.5 -61.2,145.4 -61.2,321.4 1.9,154.9 9.6,212.3 45.9,302.2 47.8,120.5 206.6,308 321.4,378.8 210.5,130 512.7,145.3 740.3,40.1 z"
           inkscape:connector-curvature="0"
           style="fill:#ffffff" />
      </g>
    </g>
  </g>
</svg>
