<?xml version="1.0" encoding="UTF-8" standalone="no"?>
<!-- Created with Inkscape (http://www.inkscape.org/) -->

<svg
   xmlns:dc="http://purl.org/dc/elements/1.1/"
   xmlns:cc="http://creativecommons.org/ns#"
   xmlns:rdf="http://www.w3.org/1999/02/22-rdf-syntax-ns#"
   xmlns:svg="http://www.w3.org/2000/svg"
   xmlns="http://www.w3.org/2000/svg"
   xmlns:sodipodi="http://sodipodi.sourceforge.net/DTD/sodipodi-0.dtd"
   xmlns:inkscape="http://www.inkscape.org/namespaces/inkscape"
   width="100"
   height="100"
   viewBox="0 0 100 100"
   id="svg2"
   version="1.1"
   inkscape:version="0.91 r13725"
   sodipodi:docname="UserAdd.svg"
   inkscape:export-filename="C:\Users\ahmed\Downloads\UserDelete.png"
   inkscape:export-xdpi="90"
   inkscape:export-ydpi="90">
  <defs
     id="defs4" />
  <sodipodi:namedview
     id="base"
     pagecolor="#323232"
     bordercolor="#666666"
     borderopacity="1.0"
     inkscape:pageopacity="0"
     inkscape:pageshadow="2"
     inkscape:zoom="3.959798"
     inkscape:cx="45.889116"
     inkscape:cy="54.190526"
     inkscape:document-units="px"
     inkscape:current-layer="layer1"
     showgrid="false"
     units="px"
     inkscape:window-width="1366"
     inkscape:window-height="715"
     inkscape:window-x="-8"
     inkscape:window-y="-8"
     inkscape:window-maximized="1" />
  <metadata
     id="metadata7">
    <rdf:RDF>
      <cc:Work
         rdf:about="">
        <dc:format>image/svg+xml</dc:format>
        <dc:type
           rdf:resource="http://purl.org/dc/dcmitype/StillImage" />
        <dc:title></dc:title>
      </cc:Work>
    </rdf:RDF>
  </metadata>
  <g
     inkscape:label="Layer 1"
     inkscape:groupmode="layer"
     id="layer1"
     transform="translate(0,-952.36214)">
    <g
       id="g4044"
       transform="matrix(0.10102005,0,0,0.10521172,-0.5102005,949.7562)"
       style="fill:#ffffff">
      <g
         id="g4046"
         transform="matrix(0.1,0,0,-0.1,0,511)"
         style="fill:#ffffff">
        <path
           id="path4048"
           d="M 4395.2,4787.6 C 3604.3,4676.5 3073.9,4236.1 2888.1,3537.2 c -46,-174.3 -49.8,-220.2 -59.4,-723.8 l -7.7,-536.2 -61.3,-19.2 c -42.1,-11.5 -70.9,-40.2 -97.7,-93.8 -51.7,-105.3 -53.6,-494 -1.9,-679.8 C 2731,1225.9 2909,908 3089,714.6 c 65.1,-70.8 97.7,-130.2 141.7,-258.5 74.7,-222.1 203,-463.4 333.2,-624.3 57.4,-70.8 99.6,-137.9 93.8,-147.4 -17.2,-26.8 -413.6,-233.6 -698.9,-363.8 -141.7,-65.1 -503.6,-222.1 -804.3,-348.5 -300.6,-126.4 -651.1,-279.6 -779.4,-340.8 -204.9,-99.6 -252.8,-132.1 -394.5,-271.9 C 527,-2085 165.1,-2952.5 113.4,-3716.6 L 100,-3908 l 183.8,-70.9 c 993.9,-381.1 2864.7,-595.5 4896.5,-561.1 664.5,9.6 936.4,21.1 1432.4,61.3 l 157,11.5 -143.7,153.2 c -800.4,836.8 -787,2150.4 26.8,2964.3 135.9,134 323.6,275.7 482.5,363.8 114.9,61.3 126.4,49.8 -155.1,168.5 -289.2,122.6 -586,264.3 -817.7,390.7 l -216.4,116.8 68.9,74.7 c 153.2,170.4 306.4,450 392.6,716.2 32.6,101.5 67,158.9 151.3,252.8 300.6,333.2 482.6,813.8 453.8,1193 -15.3,201.1 -57.5,296.8 -139.8,327.5 l -65.1,23 0,423.2 c 0,231.7 -9.6,499.8 -21.1,593.6 -72.8,597.5 -409.8,1074.3 -928.8,1317.5 -380.8,176 -955.3,246.9 -1462.7,176 z"
           inkscape:connector-curvature="0"
           style="fill:#ffffff" />
        <path
           id="path4050"
           d="m 7794.1,-1129.5 c -639.6,-141.7 -1116.4,-580.2 -1321.3,-1216 -70.9,-218.3 -88.1,-601.3 -38.3,-844.5 88.1,-440.4 361.9,-857.9 725.8,-1106.8 134,-91.9 386.8,-206.8 557.2,-252.8 204.9,-55.5 643.4,-61.3 833,-9.6 407.9,109.1 729.6,310.2 957.5,597.4 181.9,227.9 277.7,419.4 356.2,716.2 51.7,189.6 46,628.1 -7.7,833 -139.8,513.2 -505.5,949.8 -976.6,1162.4 -227.9,103.4 -455.8,149.4 -729.6,147.4 -132.1,0.1 -293,-13.3 -356.2,-26.7 z m 459.6,-612.8 47.9,-45.9 0,-451.9 0,-450 450,0 451.9,0 46,-47.9 c 63.2,-61.3 65.1,-158.9 3.8,-216.4 -42.1,-40.2 -63.2,-42.1 -492.1,-46 l -450,-5.7 -5.7,-450 c -3.8,-429 -5.7,-450 -46,-492.1 -51.7,-55.5 -147.5,-57.4 -208.7,-7.6 -46,36.4 -46,40.2 -51.7,497.9 l -5.7,461.5 -446.2,0 c -497.9,0 -517,3.8 -540,128.3 -9.6,51.7 -1.9,70.9 45.9,120.6 l 57.5,57.4 442.4,0 442.3,0 0,442.4 0,442.3 55.5,55.5 c 68.9,68.9 139.7,70.8 202.9,7.6 z"
           inkscape:connector-curvature="0"
           style="fill:#ffffff" />
      </g>
    </g>
  </g>
</svg>
