<?xml version="1.0" encoding="UTF-8" standalone="no"?>
<!-- Created with Inkscape (http://www.inkscape.org/) -->

<svg
   xmlns:dc="http://purl.org/dc/elements/1.1/"
   xmlns:cc="http://creativecommons.org/ns#"
   xmlns:rdf="http://www.w3.org/1999/02/22-rdf-syntax-ns#"
   xmlns:svg="http://www.w3.org/2000/svg"
   xmlns="http://www.w3.org/2000/svg"
   xmlns:sodipodi="http://sodipodi.sourceforge.net/DTD/sodipodi-0.dtd"
   xmlns:inkscape="http://www.inkscape.org/namespaces/inkscape"
   width="100"
   height="100"
   viewBox="0 0 100 100"
   id="svg2"
   version="1.1"
   inkscape:version="0.91 r13725"
   sodipodi:docname="UserInfo.svg"
   inkscape:export-filename="C:\Users\ahmed\Downloads\UserAdd.png"
   inkscape:export-xdpi="90"
   inkscape:export-ydpi="90">
  <defs
     id="defs4" />
  <sodipodi:namedview
     id="base"
     pagecolor="#323232"
     bordercolor="#666666"
     borderopacity="1.0"
     inkscape:pageopacity="0"
     inkscape:pageshadow="2"
     inkscape:zoom="3.959798"
     inkscape:cx="76.541989"
     inkscape:cy="52.386118"
     inkscape:document-units="px"
     inkscape:current-layer="layer1"
     showgrid="false"
     units="px"
     inkscape:window-width="1366"
     inkscape:window-height="715"
     inkscape:window-x="-8"
     inkscape:window-y="-8"
     inkscape:window-maximized="1" />
  <metadata
     id="metadata7">
    <rdf:RDF>
      <cc:Work
         rdf:about="">
        <dc:format>image/svg+xml</dc:format>
        <dc:type
           rdf:resource="http://purl.org/dc/dcmitype/StillImage" />
        <dc:title></dc:title>
      </cc:Work>
    </rdf:RDF>
  </metadata>
  <g
     inkscape:label="Layer 1"
     inkscape:groupmode="layer"
     id="layer1"
     transform="translate(0,-952.36214)">
    <g
       id="g4064"
       transform="matrix(0.10102101,0,0,0.10514733,-0.5102101,949.7891)"
       style="fill:#ffffff">
      <g
         id="g4066"
         transform="matrix(0.1,0,0,-0.1,0,511)"
         style="fill:#ffffff">
        <path
           id="path4068"
           d="m 4395.3,4789.6 c -505.5,-70.9 -923,-285.3 -1187.3,-609 -124.5,-151.3 -273.8,-455.8 -327.5,-664.5 -36.4,-141.7 -42.1,-231.7 -49.8,-700.9 l -9.6,-536.2 -61.3,-19.2 c -42.1,-11.5 -70.9,-40.2 -97.7,-93.8 -51.7,-105.3 -53.6,-496 -1.9,-679.8 70.9,-258.5 248.9,-576.4 429,-769.8 65.1,-70.8 97.7,-130.2 141.7,-258.5 74.7,-222.1 203,-463.4 333.2,-624.3 57.5,-70.9 99.6,-137.9 93.8,-147.5 -17.2,-26.8 -413.6,-233.6 -699,-363.8 -141.7,-65.1 -503.6,-222.1 -804.3,-348.5 -300.7,-124.5 -653,-279.6 -783.2,-344.7 -206.8,-101.5 -254.7,-134 -394.5,-271.9 C 525,-2090.9 165,-2954.5 113.3,-3714.8 l -13.3,-191.4 180,-69 c 779.4,-298.7 1991.6,-482.6 3617.4,-553.4 766,-32.6 2003.1,-9.6 2725,51.7 l 149.4,11.5 -141.8,147.4 c -298.8,312.1 -490.2,689.4 -568.8,1112.6 -34.5,180 -28.7,553.4 7.7,752.6 116.8,620.4 515.1,1166.2 1068.6,1468.8 l 99.6,55.5 -84.3,36.4 c -503.6,216.4 -741.1,329.4 -1028.3,488.3 l -176.2,95.7 67,74.7 c 153.2,172.3 346.6,530.4 409.8,762.2 15.3,55.5 57.5,122.6 120.6,191.5 178.1,195.3 319.8,440.4 406,708.5 44,136 53.6,199.2 55.5,383 0,120.6 -3.8,250.9 -13.4,289.2 -17.2,80.4 -97.7,170.4 -149.4,170.4 -34.5,0 -36.4,23 -36.4,427 0,643.4 -46,903.9 -212.6,1217.9 -166.6,310.2 -377.2,515.1 -697.1,674.1 -400,197.3 -966.9,273.9 -1503,199.2 z"
           inkscape:connector-curvature="0"
           style="fill:#ffffff" />
        <path
           id="path4070"
           d="m 7824.9,-1120 c -607,-118.7 -1126,-566.8 -1327.1,-1147 -95.7,-275.8 -120.6,-649.2 -61.3,-934.5 88.1,-428.9 365.8,-846.4 723.9,-1093.4 442.4,-304.5 1041.7,-386.8 1554.9,-212.6 578.3,195.3 982.4,639.6 1149,1263.9 51.7,189.6 46,628.1 -9.6,833 -45.9,170.4 -160.8,423.2 -252.8,557.2 -247,360 -662.6,635.8 -1093.4,723.8 -158.9,32.6 -538,38.3 -683.6,9.6 z m 398.4,-563 c 65.1,-32.6 78.5,-63.2 78.5,-164.7 0,-91.9 -67,-170.4 -143.6,-170.4 -74.7,0 -162.8,95.8 -162.8,176.2 0,74.7 44,145.5 103.4,168.5 55.5,23 63.2,23 124.5,-9.6 z m 34.4,-549.6 44,-40.2 0,-792.8 c 0,-480.6 -7.7,-808.1 -19.2,-829.2 -24.9,-47.9 -124.5,-78.5 -181.9,-57.5 -107.2,40.2 -107.2,40.2 -101.5,900 l 5.7,789 46,36.4 c 59.5,47.9 151.4,46 206.9,-5.7 z"
           inkscape:connector-curvature="0"
           style="fill:#ffffff" />
      </g>
    </g>
  </g>
</svg>
