<?xml version="1.0" encoding="UTF-8" standalone="no"?>
<!-- Created with Inkscape (http://www.inkscape.org/) -->

<svg
   xmlns:dc="http://purl.org/dc/elements/1.1/"
   xmlns:cc="http://creativecommons.org/ns#"
   xmlns:rdf="http://www.w3.org/1999/02/22-rdf-syntax-ns#"
   xmlns:svg="http://www.w3.org/2000/svg"
   xmlns="http://www.w3.org/2000/svg"
   xmlns:sodipodi="http://sodipodi.sourceforge.net/DTD/sodipodi-0.dtd"
   xmlns:inkscape="http://www.inkscape.org/namespaces/inkscape"
   width="100"
   height="100"
   viewBox="0 0 100 100"
   id="svg2"
   version="1.1"
   inkscape:version="0.91 r13725"
   sodipodi:docname="Write.svg"
   inkscape:export-filename="C:\Users\ahmed\Downloads\install.png"
   inkscape:export-xdpi="90"
   inkscape:export-ydpi="90">
  <defs
     id="defs4">
    <linearGradient
       id="linearGradient-1"
       y2="157.95518"
       x2="92.696571"
       y1="17.661398"
       x1="92.696587"
       gradientTransform="scale(0.97317604,1.0275633)"
       gradientUnits="userSpaceOnUse">
      <stop
         id="stop4015"
         offset="0%"
         stop-color="#97D9F6" />
      <stop
         id="stop4017"
         offset="92.024499%"
         stop-color="#0F80CC" />
      <stop
         id="stop4019"
         offset="100%"
         stop-color="#0F80CC" />
    </linearGradient>
  </defs>
  <sodipodi:namedview
     id="base"
     pagecolor="#141e1e"
     bordercolor="#666666"
     borderopacity="1.0"
     inkscape:pageopacity="0"
     inkscape:pageshadow="2"
     inkscape:zoom="1.979899"
     inkscape:cx="164.12635"
     inkscape:cy="93.106672"
     inkscape:document-units="px"
     inkscape:current-layer="layer1"
     showgrid="false"
     inkscape:window-width="1366"
     inkscape:window-height="715"
     inkscape:window-x="-8"
     inkscape:window-y="-8"
     inkscape:window-maximized="1"
     units="px" />
  <metadata
     id="metadata7">
    <rdf:RDF>
      <cc:Work
         rdf:about="">
        <dc:format>image/svg+xml</dc:format>
        <dc:type
           rdf:resource="http://purl.org/dc/dcmitype/StillImage" />
        <dc:title></dc:title>
      </cc:Work>
    </rdf:RDF>
  </metadata>
  <g
     inkscape:label="Layer 1"
     inkscape:groupmode="layer"
     id="layer1"
     transform="translate(0,-952.36216)">
    <g
       id="g4620"
       transform="matrix(0.1010205,0,0,0.10026334,-0.510205,952.23048)"
       style="fill:#ffffff">
      <g
         id="g4622"
         transform="matrix(0.1,0,0,-0.1,0,511)"
         style="fill:#ffffff">
        <path
           id="path4624"
           d="m 3767.5,3896.6 c -213.6,-652.8 -370.9,-1172 -356.1,-1186.9 26.7,-23.7 2302.6,-777.4 2314.4,-762.6 14.8,14.8 753.7,2293.7 753.7,2320.4 0,17.8 -510.4,195.8 -1136.4,397.6 C 4720,4866.9 4194.8,5039 4177,5044.9 c -17.9,6 -192.9,-483.6 -409.5,-1148.3 z"
           inkscape:connector-curvature="0"
           style="fill:#ffffff" />
        <path
           id="path4626"
           d="m 7458.7,5033.1 c 0,-11.9 -47.5,-560.8 -106.8,-1219.5 -59.3,-658.7 -97.9,-1204.7 -86.1,-1216.6 20.8,-20.8 2074.1,-210.7 2308.5,-210.7 95,-3 139.5,8.9 139.5,35.6 0,20.8 47.5,566.7 103.8,1207.7 56.4,643.9 92,1178 80.1,1189.9 -11.9,8.9 -528.2,59.3 -1148.3,112.7 -620.2,53.4 -1163.2,100.9 -1207.7,109.8 -47.4,8.9 -83,5.9 -83,-8.9 z"
           inkscape:connector-curvature="0"
           style="fill:#ffffff" />
        <path
           id="path4628"
           d="m 100,2324 0,-1246.2 1231.4,0 1231.4,0 0,1246.2 0,1246.2 -1231.4,0 -1231.4,0 0,-1246.2 z"
           inkscape:connector-curvature="0"
           style="fill:#ffffff" />
        <path
           id="path4630"
           d="m 7868.1,1410.1 c -617.2,-204.8 -1121.6,-385.7 -1121.6,-400.6 0,-74.2 750.7,-2305.5 777.4,-2305.5 80.1,0 2308.5,750.7 2308.5,777.4 0,17.8 -169.1,546 -376.8,1169.1 -287.8,872.4 -385.7,1139.4 -421.3,1136.4 -26.7,0 -551.9,-172.1 -1166.2,-376.8 z"
           inkscape:connector-curvature="0"
           style="fill:#ffffff" />
        <path
           id="path4632"
           d="m 100,-628.4 0,-1231.4 1231.4,0 1231.4,0 0,1231.4 0,1231.4 -1231.4,0 -1231.4,0 0,-1231.4 z"
           inkscape:connector-curvature="0"
           style="fill:#ffffff" />
        <path
           id="path4634"
           d="m 2978.2,-628.4 0,-1231.4 1246.2,0 1246.2,0 0,1231.4 0,1231.4 -1246.2,0 -1246.2,0 0,-1231.4 z"
           inkscape:connector-curvature="0"
           style="fill:#ffffff" />
        <path
           id="path4636"
           d="m 100,-3595.6 0,-1231.4 1231.4,0 1231.4,0 0,1231.4 0,1231.4 -1231.4,0 -1231.4,0 0,-1231.4 z"
           inkscape:connector-curvature="0"
           style="fill:#ffffff" />
        <path
           id="path4638"
           d="m 2978.2,-3595.6 0,-1231.4 1246.2,0 1246.2,0 0,1231.4 0,1231.4 -1246.2,0 -1246.2,0 0,-1231.4 z"
           inkscape:connector-curvature="0"
           style="fill:#ffffff" />
        <path
           id="path4640"
           d="m 5886.1,-3595.6 0,-1231.4 1231.4,0 1231.4,0 0,1231.4 0,1231.4 -1231.5,0 -1231.3,0 0,-1231.4 z"
           inkscape:connector-curvature="0"
           style="fill:#ffffff" />
      </g>
    </g>
  </g>
</svg>
